Coordinates
version=1
nRows=26
nColumns=24
inDegrees=yes

Units are S.I. units (second, meters, Newtons, ...)
Angles are in degrees.

endheader
time	pelvis_tilt	pelvis_list	pelvis_rotation	pelvis_tx	pelvis_ty	pelvis_tz	hip_flexion_r	hip_adduction_r	hip_rotation_r	knee_angle_r	ankle_angle_r	subtalar_angle_r	mtp_angle_r	hip_flexion_l	hip_adduction_l	hip_rotation_l	knee_angle_l	ankle_angle_l	subtalar_angle_l	mtp_angle_l	lumbar_extension	lumbar_bending	lumbar_rotation
      1.14950000	      0.44509229	      6.87065307	     -1.41734740	      0.13593043	      0.99572229	      0.28022927	     20.82382553	     -7.32426828	      0.62982858	    -70.41687091	      5.31381370	    -10.62504264	     -0.19533302	      8.05110775	     12.04333216	     -0.76336234	    -11.99286191	      4.15295041	     -7.00511694	      1.51484890	     -2.01884745	     -4.55594939	      2.82711536
      1.15366667	      0.51692672	      6.76101995	     -1.42934244	      0.14104549	      0.99658759	      0.28016062	     21.27491350	     -7.13693761	      0.76650147	    -70.04912651	      5.73074758	    -10.85514646	     -0.55670632	      7.41812046	     11.95530294	     -0.58183216	    -11.57607332	      4.15530417	     -7.09643561	      1.34344347	     -2.12553821	     -4.43230727	      2.72882199
      1.15783333	      0.50553363	      6.64566251	     -1.43101598	      0.14612788	      0.99726616	      0.28011298	     21.80780450	     -6.93814161	      0.90106216	    -69.63954396	      6.25334683	    -10.94890600	     -0.60236202	      6.92899126	     11.84440033	     -0.50279794	    -11.26843024	      4.27982851	     -7.01846126	      1.31903396	     -2.12386981	     -4.29728964	      2.69471138
      1.16200000	      0.56476510	      6.53243537	     -1.44448979	      0.15120129	      0.99802342	      0.28007657	     22.24149816	     -6.74160777	      1.03666732	    -69.15612611	      6.70088728	    -11.11503842	     -0.97123022	      6.33951382	     11.74307867	     -0.36703577	    -10.90400440	      4.32005273	     -7.01913736	      1.11491041	     -2.23648178	     -4.16526731	      2.59763696
      1.16616667	      0.54818561	      6.42108262	     -1.44291017	      0.15626014	      0.99861278	      0.28004105	     22.74478552	     -6.54709283	      1.16154741	    -68.62790266	      7.21427089	    -11.18033363	     -1.00814182	      5.86681961	     11.63510789	     -0.28616756	    -10.61026434	      4.44926918	     -6.95508820	      1.09151915	     -2.23525051	     -4.02455115	      2.56789592
      1.17033333	      0.55392491	      6.31002782	     -1.43958750	      0.16130665	      0.99919137	      0.28001915	     23.20130605	     -6.35150723	      1.28430788	    -68.03410691	      7.70089885	    -11.26395460	     -1.05237694	      5.36819912	     11.52777470	     -0.18852728	    -10.30855669	      4.54957714	     -6.90347052	      1.06199419	     -2.27692378	     -3.89881495	      2.51501506
      1.17450000	      0.56229965	      6.19662614	     -1.43640902	      0.16635184	      0.99974898	      0.27999902	     23.63284745	     -6.15523554	      1.39981545	    -67.37503202	      8.16334338	    -11.33996199	     -1.09706763	      4.86461866	     11.41809288	     -0.08867796	     -9.99895714	      4.64524418	     -6.86804700	      1.03055693	     -2.31977395	     -3.76251433	      2.45244609
      1.17866667	      0.62393385	      6.11277491	     -1.43347109	      0.17140923	      1.00032261	      0.27997996	     23.98521267	     -5.99720916	      1.51418598	    -66.65900507	      8.60110033	    -11.41681779	     -1.21948755	      4.28711621	     11.34616976	      0.06101777	     -9.65624432	      4.72764703	     -6.88567356	      0.94544824	     -2.42425027	     -3.68336689	      2.34464691
      1.18283333	      0.58622774	      5.99134628	     -1.41587614	      0.17643041	      1.00072622	      0.27996925	     24.42268234	     -5.78824937	      1.62057626	    -65.87767833	      9.02287171	    -11.46196453	     -1.26783820	      3.85526608	     11.22376312	      0.15670682	     -9.38742918	      4.82245149	     -6.86501708	      0.90962021	     -2.40758480	     -3.54242213	      2.29250544
      1.18700000	      0.59245904	      5.89289952	     -1.39781719	      0.18145992	      1.00113449	      0.27995517	     24.79384760	     -5.61229073	      1.71917541	    -65.04777985	      9.44819689	    -11.52119146	     -1.32171770	      3.36596260	     11.12947879	      0.26686972	     -9.09684941	      4.91985279	     -6.85339823	      0.86940823	     -2.44567474	     -3.42715483	      2.22032544
      1.19116667	      0.61405193	      5.81976372	     -1.37960953	      0.18649135	      1.00150779	      0.27993179	     25.13277310	     -5.47166385	      1.81213495	    -64.17060437	      9.82545483	    -11.60164331	     -1.44168569	      2.84060809	     11.06672195	      0.42608648	     -8.76333356	      5.00584870	     -6.90365355	      0.78217182	     -2.51169330	     -3.35038045	      2.09644890
      1.19533333	      0.56130919	      5.72092320	     -1.35134379	      0.19149612	      1.00173375	      0.27991463	     25.53058608	     -5.29635329	      1.89847377	    -63.23509182	     10.17240733	    -11.63851646	     -1.48429026	      2.43267357	     10.96809525	      0.52369364	     -8.50263309	      5.10179408	     -6.89195703	      0.75050710	     -2.48902045	     -3.23083187	      2.04638939
      1.19950000	      0.55579255	      5.62591139	     -1.31520264	      0.19650868	      1.00200944	      0.27989818	     25.84133799	     -5.12821218	      1.97939086	    -62.22550132	     10.51493289	    -11.71788731	     -1.53852925	      1.96676632	     10.87616298	      0.65512224	     -8.23262723	      5.19651968	     -6.90395870	      0.71143450	     -2.50715574	     -3.12142263	      1.96480071
      1.20366667	      0.59208309	      5.56340420	     -1.28862202	      0.20153952	      1.00227487	      0.27987744	     26.09702608	     -5.00627827	      2.05311964	    -61.18313170	     10.79088949	    -11.83742014	     -1.65977624	      1.42239964	     10.82461533	      0.83443927	     -7.89152220	      5.26728830	     -6.99298586	      0.62602329	     -2.59210428	     -3.05785517	      1.82450975
      1.20783333	      0.53497601	      5.48782406	     -1.24543752	      0.20652999	      1.00235553	      0.27985432	     26.43500685	     -4.86628451	      2.12151757	    -60.09178565	     11.06575753	    -11.88516214	     -1.70843307	      1.02478867	     10.75023133	      0.94762274	     -7.63990205	      5.35515976	     -7.00069522	      0.59213541	     -2.56178684	     -2.96980280	      1.77030525
      1.21200000	      0.50928996	      5.41383324	     -1.20074235	      0.21153371	      1.00245012	      0.27982716	     26.70939540	     -4.73220051	      2.18327362	    -58.94047235	     11.30332419	    -11.97911009	     -1.76463489	      0.58393720	     10.67977866	      1.09115409	     -7.37379137	      5.44409067	     -7.03616922	      0.55466957	     -2.56313023	     -2.87766654	      1.68779545
      1.21616667	      0.51072134	      5.34576475	     -1.15620921	      0.21655430	      1.00256384	      0.27980973	     26.92929334	     -4.61130747	      2.22968992	    -57.73480027	     11.48294711	    -12.10781187	     -1.84272295	      0.09527217	     10.61610260	      1.25394774	     -7.06971002	      5.51131671	     -7.11032149	      0.50321907	     -2.60829183	     -2.80482089	      1.57586974
      1.22033333	      0.49404064	      5.32630347	     -1.11644626	      0.22155520	      1.00257350	      0.27976439	     27.16623146	     -4.54504063	      2.29518143	    -56.51218257	     11.63226075	    -12.23784833	     -2.13731118	     -0.39982396	     10.61336459	      1.51949115	     -6.70521872	      5.47316606	     -7.36138016	      0.30310470	     -2.62461313	     -2.78923119	      1.40742518
      1.22450000	      0.44884087	      5.25867843	     -1.06136134	      0.22655978	      1.00252136	      0.27974452	     27.39603107	     -4.43246257	      2.32115810	    -55.22006490	     11.75727407	    -12.29393862	     -2.19588282	     -0.80364717	     10.54319320	      1.62531420	     -6.47326822	      5.61680877	     -7.34675926	      0.26833652	     -2.60796807	     -2.70714676	      1.36894349
      1.22866667	      0.45478265	      5.22694469	     -1.02654251	      0.23157539	      1.00248677	      0.27973359	     27.55736532	     -4.35525713	      2.36955862	    -53.89717527	     11.81142758	    -12.45227844	     -2.32909231	     -1.30117209	     10.51720154	      1.78846871	     -6.15835390	      5.68520413	     -7.42294738	      0.18404762	     -2.65622741	     -2.67606139	      1.25223503
      1.23283333	      0.39040251	      5.17659253	     -0.96750707	      0.23657780	      1.00233989	      0.27971006	     27.76661860	     -4.26856219	      2.38343692	    -52.52424050	     11.88211273	    -12.49852063	     -2.39614121	     -1.68866193	     10.46416783	      1.91086097	     -5.91288318	      5.76066980	     -7.45655904	      0.14242890	     -2.61666570	     -2.61761384	      1.19549016
      1.23700000	      0.37971402	      5.13670727	     -0.92275864	      0.24160422	      1.00223105	      0.27970208	     27.89475254	     -4.19433897	      2.39927870	    -51.10999155	     11.88352867	    -12.57904674	     -2.47725356	     -2.15789152	     10.42441809	      2.05630306	     -5.62129799	      5.82714105	     -7.51813361	      0.09158102	     -2.64495201	     -2.56971410	      1.10738319
      1.24116667	      0.36015961	      5.12685950	     -0.88581338	      0.24661014	      1.00205024	      0.27970107	     28.02316786	     -4.14705975	      2.43636700	    -49.67702190	     11.85221026	    -12.67298237	     -2.60176332	     -2.62311451	     10.41914638	      2.23376121	     -5.31423235	      5.87500619	     -7.63449041	      0.00937703	     -2.66657919	     -2.56276643	      0.99686579
      1.24533333	      0.29291615	      5.09641538	     -0.83666692	      0.25164711	      1.00178140	      0.27969207	     28.17840276	     -4.09400982	      2.42327371	    -48.20860487	     11.82730119	    -12.66873304	     -2.66963108	     -3.01394911	     10.38536475	      2.32962408	     -5.05787527	      5.94838427	     -7.67269571	     -0.03589042	     -2.61050730	     -2.52220554	      0.94541163
      1.24950000	      0.26768202	      5.07197126	     -0.79821459	      0.25668634	      1.00154275	      0.27969849	     28.26382363	     -4.04427074	      2.41898821	    -46.70151397	     11.74334710	    -12.66870467	     -2.74427854	     -3.46130469	     10.35903167	      2.44172472	     -4.77855939	      6.01803194	     -7.72245447	     -0.08750118	     -2.61906807	     -2.49264883	      0.87499609
      1.25366667	      0.23336033	      5.06656469	     -0.76698334	      0.26172396	      1.00123940	      0.27972950	     28.34709170	     -4.01334071	      2.41677474	    -45.18137207	     11.64813693	    -12.63313724	     -2.81870140	     -3.89796196	     10.35166250	      2.54717608	     -4.49822912	      6.08417051	     -7.77500530	     -0.14326580	     -2.61855972	     -2.49662203	      0.80900177
